<mxfile host="app.diagrams.net" agent="Mozilla/5.0 (Windows NT 10.0; Win64; x64) AppleWebKit/537.36 (KHTML, like Gecko) Chrome/133.0.0.0 Safari/537.36 Edg/133.0.0.0" version="26.0.16">
  <diagram id="C5RBs43oDa-KdzZeNtuy" name="Page-1">
    <mxGraphModel dx="824" dy="380" grid="1" gridSize="10" guides="1" tooltips="1" connect="1" arrows="1" fold="1" page="1" pageScale="1" pageWidth="827" pageHeight="1169" math="0" shadow="0">
      <root>
        <mxCell id="WIyWlLk6GJQsqaUBKTNV-0" />
        <mxCell id="WIyWlLk6GJQsqaUBKTNV-1" parent="WIyWlLk6GJQsqaUBKTNV-0" />
        <mxCell id="pdg93lW9iFJ4b4SD4-UE-0" value="Game" style="swimlane;fontStyle=1;align=center;verticalAlign=top;childLayout=stackLayout;horizontal=1;startSize=26;horizontalStack=0;resizeParent=1;resizeParentMax=0;resizeLast=0;collapsible=1;marginBottom=0;whiteSpace=wrap;html=1;" parent="WIyWlLk6GJQsqaUBKTNV-1" vertex="1">
          <mxGeometry x="229" y="150" width="160" height="240" as="geometry" />
        </mxCell>
        <mxCell id="pdg93lW9iFJ4b4SD4-UE-1" value="- labyrinth&lt;div&gt;- pacman&lt;/div&gt;&lt;div&gt;- ghost&lt;/div&gt;&lt;div&gt;- score&lt;/div&gt;&lt;div&gt;- points&lt;/div&gt;" style="text;strokeColor=none;fillColor=none;align=left;verticalAlign=top;spacingLeft=4;spacingRight=4;overflow=hidden;rotatable=0;points=[[0,0.5],[1,0.5]];portConstraint=eastwest;whiteSpace=wrap;html=1;" parent="pdg93lW9iFJ4b4SD4-UE-0" vertex="1">
          <mxGeometry y="26" width="160" height="84" as="geometry" />
        </mxCell>
        <mxCell id="pdg93lW9iFJ4b4SD4-UE-2" value="" style="line;strokeWidth=1;fillColor=none;align=left;verticalAlign=middle;spacingTop=-1;spacingLeft=3;spacingRight=3;rotatable=0;labelPosition=right;points=[];portConstraint=eastwest;strokeColor=inherit;" parent="pdg93lW9iFJ4b4SD4-UE-0" vertex="1">
          <mxGeometry y="110" width="160" height="8" as="geometry" />
        </mxCell>
        <mxCell id="pdg93lW9iFJ4b4SD4-UE-3" value="+ render()&lt;div&gt;+ direct_pacman()&lt;/div&gt;&lt;div&gt;+ update_direct_pacman()&lt;/div&gt;&lt;div&gt;+ get_ghost_position()&lt;/div&gt;&lt;div&gt;+ move_ghosts()&lt;/div&gt;&lt;div&gt;+ check_win()&lt;/div&gt;&lt;div&gt;+ check_lose()&lt;/div&gt;" style="text;strokeColor=none;fillColor=none;align=left;verticalAlign=top;spacingLeft=4;spacingRight=4;overflow=hidden;rotatable=0;points=[[0,0.5],[1,0.5]];portConstraint=eastwest;whiteSpace=wrap;html=1;" parent="pdg93lW9iFJ4b4SD4-UE-0" vertex="1">
          <mxGeometry y="118" width="160" height="122" as="geometry" />
        </mxCell>
        <mxCell id="pdg93lW9iFJ4b4SD4-UE-4" value="Pacman" style="swimlane;fontStyle=1;align=center;verticalAlign=top;childLayout=stackLayout;horizontal=1;startSize=26;horizontalStack=0;resizeParent=1;resizeParentMax=0;resizeLast=0;collapsible=1;marginBottom=0;whiteSpace=wrap;html=1;" parent="WIyWlLk6GJQsqaUBKTNV-1" vertex="1">
          <mxGeometry x="130" y="510" width="160" height="210" as="geometry" />
        </mxCell>
        <mxCell id="pdg93lW9iFJ4b4SD4-UE-5" value="- next_direction&lt;div&gt;- current_direction&lt;/div&gt;&lt;div&gt;- x&lt;/div&gt;&lt;div&gt;- y&lt;/div&gt;&lt;div&gt;- image (UI)&lt;/div&gt;&lt;div&gt;- image1 (UI)&lt;/div&gt;&lt;div&gt;- count (UI)&lt;/div&gt;&lt;div&gt;&lt;br&gt;&lt;/div&gt;" style="text;strokeColor=none;fillColor=none;align=left;verticalAlign=top;spacingLeft=4;spacingRight=4;overflow=hidden;rotatable=0;points=[[0,0.5],[1,0.5]];portConstraint=eastwest;whiteSpace=wrap;html=1;" parent="pdg93lW9iFJ4b4SD4-UE-4" vertex="1">
          <mxGeometry y="26" width="160" height="114" as="geometry" />
        </mxCell>
        <mxCell id="pdg93lW9iFJ4b4SD4-UE-6" value="" style="line;strokeWidth=1;fillColor=none;align=left;verticalAlign=middle;spacingTop=-1;spacingLeft=3;spacingRight=3;rotatable=0;labelPosition=right;points=[];portConstraint=eastwest;strokeColor=inherit;" parent="pdg93lW9iFJ4b4SD4-UE-4" vertex="1">
          <mxGeometry y="140" width="160" height="8" as="geometry" />
        </mxCell>
        <mxCell id="pdg93lW9iFJ4b4SD4-UE-7" value="&lt;div&gt;&lt;div&gt;+ getter() / setter()&lt;/div&gt;&lt;div&gt;+ render()&lt;div&gt;&lt;/div&gt;&lt;div&gt;+ update_image()&lt;/div&gt;&lt;/div&gt;&lt;/div&gt;" style="text;strokeColor=none;fillColor=none;align=left;verticalAlign=top;spacingLeft=4;spacingRight=4;overflow=hidden;rotatable=0;points=[[0,0.5],[1,0.5]];portConstraint=eastwest;whiteSpace=wrap;html=1;" parent="pdg93lW9iFJ4b4SD4-UE-4" vertex="1">
          <mxGeometry y="148" width="160" height="62" as="geometry" />
        </mxCell>
        <mxCell id="pdg93lW9iFJ4b4SD4-UE-8" value="Labyrinth" style="swimlane;fontStyle=1;align=center;verticalAlign=top;childLayout=stackLayout;horizontal=1;startSize=26;horizontalStack=0;resizeParent=1;resizeParentMax=0;resizeLast=0;collapsible=1;marginBottom=0;whiteSpace=wrap;html=1;" parent="WIyWlLk6GJQsqaUBKTNV-1" vertex="1">
          <mxGeometry x="29" y="150" width="160" height="270" as="geometry" />
        </mxCell>
        <mxCell id="pdg93lW9iFJ4b4SD4-UE-9" value="- map&lt;div&gt;- height&lt;/div&gt;&lt;div&gt;- width&lt;/div&gt;&lt;div&gt;- tile_size&lt;/div&gt;&lt;div&gt;- free_tiles&lt;/div&gt;&lt;div&gt;- finish_tile&lt;/div&gt;" style="text;strokeColor=none;fillColor=none;align=left;verticalAlign=top;spacingLeft=4;spacingRight=4;overflow=hidden;rotatable=0;points=[[0,0.5],[1,0.5]];portConstraint=eastwest;whiteSpace=wrap;html=1;" parent="pdg93lW9iFJ4b4SD4-UE-8" vertex="1">
          <mxGeometry y="26" width="160" height="94" as="geometry" />
        </mxCell>
        <mxCell id="pdg93lW9iFJ4b4SD4-UE-10" value="" style="line;strokeWidth=1;fillColor=none;align=left;verticalAlign=middle;spacingTop=-1;spacingLeft=3;spacingRight=3;rotatable=0;labelPosition=right;points=[];portConstraint=eastwest;strokeColor=inherit;" parent="pdg93lW9iFJ4b4SD4-UE-8" vertex="1">
          <mxGeometry y="120" width="160" height="8" as="geometry" />
        </mxCell>
        <mxCell id="pdg93lW9iFJ4b4SD4-UE-11" value="+ render()&lt;div&gt;+ get_tile_id()&lt;/div&gt;&lt;div&gt;+ is_free()&lt;/div&gt;&lt;div&gt;+ bfs()&lt;/div&gt;&lt;div&gt;+ ids()&lt;/div&gt;&lt;div&gt;+ ucs()&lt;/div&gt;&lt;div&gt;+ a_star()&lt;br&gt;&lt;/div&gt;&lt;div&gt;+ _heuristic()&lt;/div&gt;&lt;div&gt;&lt;br&gt;&lt;/div&gt;" style="text;strokeColor=none;fillColor=none;align=left;verticalAlign=top;spacingLeft=4;spacingRight=4;overflow=hidden;rotatable=0;points=[[0,0.5],[1,0.5]];portConstraint=eastwest;whiteSpace=wrap;html=1;" parent="pdg93lW9iFJ4b4SD4-UE-8" vertex="1">
          <mxGeometry y="128" width="160" height="142" as="geometry" />
        </mxCell>
        <mxCell id="pdg93lW9iFJ4b4SD4-UE-31" value="" style="endArrow=none;html=1;edgeStyle=orthogonalEdgeStyle;rounded=0;exitX=0.5;exitY=0;exitDx=0;exitDy=0;entryX=0.5;entryY=0;entryDx=0;entryDy=0;" parent="WIyWlLk6GJQsqaUBKTNV-1" source="pdg93lW9iFJ4b4SD4-UE-0" target="pdg93lW9iFJ4b4SD4-UE-8" edge="1">
          <mxGeometry relative="1" as="geometry">
            <mxPoint x="419" y="50" as="sourcePoint" />
            <mxPoint x="579" y="50" as="targetPoint" />
            <Array as="points">
              <mxPoint x="290" y="150" />
              <mxPoint x="290" y="90" />
              <mxPoint x="109" y="90" />
            </Array>
          </mxGeometry>
        </mxCell>
        <mxCell id="pdg93lW9iFJ4b4SD4-UE-34" value="" style="endArrow=none;html=1;edgeStyle=orthogonalEdgeStyle;rounded=0;entryX=0.5;entryY=0;entryDx=0;entryDy=0;" parent="WIyWlLk6GJQsqaUBKTNV-1" target="pdg93lW9iFJ4b4SD4-UE-4" edge="1">
          <mxGeometry relative="1" as="geometry">
            <mxPoint x="310" y="150" as="sourcePoint" />
            <mxPoint x="119" y="160" as="targetPoint" />
            <Array as="points">
              <mxPoint x="270" y="150" />
              <mxPoint x="270" y="120" />
              <mxPoint x="210" y="120" />
            </Array>
          </mxGeometry>
        </mxCell>
        <mxCell id="pdg93lW9iFJ4b4SD4-UE-35" value="Red" style="swimlane;fontStyle=1;align=center;verticalAlign=top;childLayout=stackLayout;horizontal=1;startSize=26;horizontalStack=0;resizeParent=1;resizeParentMax=0;resizeLast=0;collapsible=1;marginBottom=0;whiteSpace=wrap;html=1;" parent="WIyWlLk6GJQsqaUBKTNV-1" vertex="1">
          <mxGeometry x="430" y="60" width="160" height="210" as="geometry" />
        </mxCell>
        <mxCell id="pdg93lW9iFJ4b4SD4-UE-36" value="&lt;div&gt;- direction&lt;/div&gt;&lt;div&gt;- x&lt;/div&gt;&lt;div&gt;- y&lt;/div&gt;&lt;div&gt;- delay&lt;/div&gt;&lt;div&gt;- image (UI)&lt;/div&gt;&lt;div&gt;- image1 (UI)&lt;/div&gt;&lt;div&gt;- count (UI)&lt;/div&gt;" style="text;strokeColor=none;fillColor=none;align=left;verticalAlign=top;spacingLeft=4;spacingRight=4;overflow=hidden;rotatable=0;points=[[0,0.5],[1,0.5]];portConstraint=eastwest;whiteSpace=wrap;html=1;" parent="pdg93lW9iFJ4b4SD4-UE-35" vertex="1">
          <mxGeometry y="26" width="160" height="114" as="geometry" />
        </mxCell>
        <mxCell id="pdg93lW9iFJ4b4SD4-UE-37" value="" style="line;strokeWidth=1;fillColor=none;align=left;verticalAlign=middle;spacingTop=-1;spacingLeft=3;spacingRight=3;rotatable=0;labelPosition=right;points=[];portConstraint=eastwest;strokeColor=inherit;" parent="pdg93lW9iFJ4b4SD4-UE-35" vertex="1">
          <mxGeometry y="140" width="160" height="8" as="geometry" />
        </mxCell>
        <mxCell id="pdg93lW9iFJ4b4SD4-UE-38" value="&lt;div&gt;&lt;div&gt;+ getter() / setter()&lt;/div&gt;&lt;div&gt;+ render()&lt;div&gt;&lt;/div&gt;&lt;div&gt;+ update_image()&lt;/div&gt;&lt;/div&gt;&lt;/div&gt;" style="text;strokeColor=none;fillColor=none;align=left;verticalAlign=top;spacingLeft=4;spacingRight=4;overflow=hidden;rotatable=0;points=[[0,0.5],[1,0.5]];portConstraint=eastwest;whiteSpace=wrap;html=1;" parent="pdg93lW9iFJ4b4SD4-UE-35" vertex="1">
          <mxGeometry y="148" width="160" height="62" as="geometry" />
        </mxCell>
        <mxCell id="pdg93lW9iFJ4b4SD4-UE-39" value="Pink" style="swimlane;fontStyle=1;align=center;verticalAlign=top;childLayout=stackLayout;horizontal=1;startSize=26;horizontalStack=0;resizeParent=1;resizeParentMax=0;resizeLast=0;collapsible=1;marginBottom=0;whiteSpace=wrap;html=1;" parent="WIyWlLk6GJQsqaUBKTNV-1" vertex="1">
          <mxGeometry x="430" y="320" width="160" height="210" as="geometry" />
        </mxCell>
        <mxCell id="pdg93lW9iFJ4b4SD4-UE-40" value="&lt;div&gt;- direction&lt;/div&gt;&lt;div&gt;- x&lt;/div&gt;&lt;div&gt;- y&lt;/div&gt;&lt;div&gt;- delay&lt;/div&gt;&lt;div&gt;- image (UI)&lt;/div&gt;&lt;div&gt;- image1 (UI)&lt;/div&gt;&lt;div&gt;- count (UI)&lt;/div&gt;" style="text;strokeColor=none;fillColor=none;align=left;verticalAlign=top;spacingLeft=4;spacingRight=4;overflow=hidden;rotatable=0;points=[[0,0.5],[1,0.5]];portConstraint=eastwest;whiteSpace=wrap;html=1;" parent="pdg93lW9iFJ4b4SD4-UE-39" vertex="1">
          <mxGeometry y="26" width="160" height="114" as="geometry" />
        </mxCell>
        <mxCell id="pdg93lW9iFJ4b4SD4-UE-41" value="" style="line;strokeWidth=1;fillColor=none;align=left;verticalAlign=middle;spacingTop=-1;spacingLeft=3;spacingRight=3;rotatable=0;labelPosition=right;points=[];portConstraint=eastwest;strokeColor=inherit;" parent="pdg93lW9iFJ4b4SD4-UE-39" vertex="1">
          <mxGeometry y="140" width="160" height="8" as="geometry" />
        </mxCell>
        <mxCell id="pdg93lW9iFJ4b4SD4-UE-42" value="&lt;div&gt;&lt;div&gt;+ getter() / setter()&lt;/div&gt;&lt;div&gt;+ render()&lt;div&gt;&lt;/div&gt;&lt;div&gt;+ update_image()&lt;/div&gt;&lt;/div&gt;&lt;/div&gt;" style="text;strokeColor=none;fillColor=none;align=left;verticalAlign=top;spacingLeft=4;spacingRight=4;overflow=hidden;rotatable=0;points=[[0,0.5],[1,0.5]];portConstraint=eastwest;whiteSpace=wrap;html=1;" parent="pdg93lW9iFJ4b4SD4-UE-39" vertex="1">
          <mxGeometry y="148" width="160" height="62" as="geometry" />
        </mxCell>
        <mxCell id="pdg93lW9iFJ4b4SD4-UE-43" value="Blue" style="swimlane;fontStyle=1;align=center;verticalAlign=top;childLayout=stackLayout;horizontal=1;startSize=26;horizontalStack=0;resizeParent=1;resizeParentMax=0;resizeLast=0;collapsible=1;marginBottom=0;whiteSpace=wrap;html=1;" parent="WIyWlLk6GJQsqaUBKTNV-1" vertex="1">
          <mxGeometry x="620" y="320" width="160" height="210" as="geometry" />
        </mxCell>
        <mxCell id="pdg93lW9iFJ4b4SD4-UE-44" value="&lt;div&gt;- direction&lt;/div&gt;&lt;div&gt;- x&lt;/div&gt;&lt;div&gt;- y&lt;/div&gt;&lt;div&gt;- delay&lt;/div&gt;&lt;div&gt;- image (UI)&lt;/div&gt;&lt;div&gt;- image1 (UI)&lt;/div&gt;&lt;div&gt;- count (UI)&lt;/div&gt;" style="text;strokeColor=none;fillColor=none;align=left;verticalAlign=top;spacingLeft=4;spacingRight=4;overflow=hidden;rotatable=0;points=[[0,0.5],[1,0.5]];portConstraint=eastwest;whiteSpace=wrap;html=1;" parent="pdg93lW9iFJ4b4SD4-UE-43" vertex="1">
          <mxGeometry y="26" width="160" height="114" as="geometry" />
        </mxCell>
        <mxCell id="pdg93lW9iFJ4b4SD4-UE-45" value="" style="line;strokeWidth=1;fillColor=none;align=left;verticalAlign=middle;spacingTop=-1;spacingLeft=3;spacingRight=3;rotatable=0;labelPosition=right;points=[];portConstraint=eastwest;strokeColor=inherit;" parent="pdg93lW9iFJ4b4SD4-UE-43" vertex="1">
          <mxGeometry y="140" width="160" height="8" as="geometry" />
        </mxCell>
        <mxCell id="pdg93lW9iFJ4b4SD4-UE-46" value="&lt;div&gt;&lt;div&gt;+ getter() / setter()&lt;/div&gt;&lt;div&gt;+ render()&lt;div&gt;&lt;/div&gt;&lt;div&gt;+ update_image()&lt;/div&gt;&lt;/div&gt;&lt;/div&gt;" style="text;strokeColor=none;fillColor=none;align=left;verticalAlign=top;spacingLeft=4;spacingRight=4;overflow=hidden;rotatable=0;points=[[0,0.5],[1,0.5]];portConstraint=eastwest;whiteSpace=wrap;html=1;" parent="pdg93lW9iFJ4b4SD4-UE-43" vertex="1">
          <mxGeometry y="148" width="160" height="62" as="geometry" />
        </mxCell>
        <mxCell id="pdg93lW9iFJ4b4SD4-UE-47" value="Orange" style="swimlane;fontStyle=1;align=center;verticalAlign=top;childLayout=stackLayout;horizontal=1;startSize=26;horizontalStack=0;resizeParent=1;resizeParentMax=0;resizeLast=0;collapsible=1;marginBottom=0;whiteSpace=wrap;html=1;" parent="WIyWlLk6GJQsqaUBKTNV-1" vertex="1">
          <mxGeometry x="620" y="60" width="160" height="210" as="geometry" />
        </mxCell>
        <mxCell id="pdg93lW9iFJ4b4SD4-UE-48" value="&lt;div&gt;- direction&lt;/div&gt;&lt;div&gt;- x&lt;/div&gt;&lt;div&gt;- y&lt;/div&gt;&lt;div&gt;- delay&lt;/div&gt;&lt;div&gt;- image (UI)&lt;/div&gt;&lt;div&gt;- image1 (UI)&lt;/div&gt;&lt;div&gt;- count (UI)&lt;/div&gt;" style="text;strokeColor=none;fillColor=none;align=left;verticalAlign=top;spacingLeft=4;spacingRight=4;overflow=hidden;rotatable=0;points=[[0,0.5],[1,0.5]];portConstraint=eastwest;whiteSpace=wrap;html=1;" parent="pdg93lW9iFJ4b4SD4-UE-47" vertex="1">
          <mxGeometry y="26" width="160" height="114" as="geometry" />
        </mxCell>
        <mxCell id="pdg93lW9iFJ4b4SD4-UE-49" value="" style="line;strokeWidth=1;fillColor=none;align=left;verticalAlign=middle;spacingTop=-1;spacingLeft=3;spacingRight=3;rotatable=0;labelPosition=right;points=[];portConstraint=eastwest;strokeColor=inherit;" parent="pdg93lW9iFJ4b4SD4-UE-47" vertex="1">
          <mxGeometry y="140" width="160" height="8" as="geometry" />
        </mxCell>
        <mxCell id="pdg93lW9iFJ4b4SD4-UE-50" value="&lt;div&gt;&lt;div&gt;+ getter() / setter()&lt;/div&gt;&lt;div&gt;+ render()&lt;div&gt;&lt;/div&gt;&lt;div&gt;+ update_image()&lt;/div&gt;&lt;/div&gt;&lt;/div&gt;" style="text;strokeColor=none;fillColor=none;align=left;verticalAlign=top;spacingLeft=4;spacingRight=4;overflow=hidden;rotatable=0;points=[[0,0.5],[1,0.5]];portConstraint=eastwest;whiteSpace=wrap;html=1;" parent="pdg93lW9iFJ4b4SD4-UE-47" vertex="1">
          <mxGeometry y="148" width="160" height="62" as="geometry" />
        </mxCell>
        <mxCell id="pdg93lW9iFJ4b4SD4-UE-51" value="" style="endArrow=none;html=1;edgeStyle=orthogonalEdgeStyle;rounded=0;exitX=0.5;exitY=0;exitDx=0;exitDy=0;entryX=0.5;entryY=0;entryDx=0;entryDy=0;" parent="WIyWlLk6GJQsqaUBKTNV-1" target="pdg93lW9iFJ4b4SD4-UE-35" edge="1">
          <mxGeometry relative="1" as="geometry">
            <mxPoint x="340.05" y="150" as="sourcePoint" />
            <mxPoint x="140.05" y="150" as="targetPoint" />
            <Array as="points">
              <mxPoint x="320" y="150" />
              <mxPoint x="320" y="20" />
              <mxPoint x="510" y="20" />
            </Array>
          </mxGeometry>
        </mxCell>
        <mxCell id="pdg93lW9iFJ4b4SD4-UE-52" value="" style="endArrow=none;html=1;edgeStyle=orthogonalEdgeStyle;rounded=0;entryX=0.5;entryY=0;entryDx=0;entryDy=0;" parent="WIyWlLk6GJQsqaUBKTNV-1" target="pdg93lW9iFJ4b4SD4-UE-47" edge="1">
          <mxGeometry relative="1" as="geometry">
            <mxPoint x="340" y="150" as="sourcePoint" />
            <mxPoint x="511" y="69" as="targetPoint" />
            <Array as="points">
              <mxPoint x="341" y="150" />
              <mxPoint x="320" y="150" />
              <mxPoint x="320" y="20" />
              <mxPoint x="700" y="20" />
            </Array>
          </mxGeometry>
        </mxCell>
        <mxCell id="pdg93lW9iFJ4b4SD4-UE-53" value="" style="endArrow=none;html=1;edgeStyle=orthogonalEdgeStyle;rounded=0;" parent="WIyWlLk6GJQsqaUBKTNV-1" edge="1">
          <mxGeometry relative="1" as="geometry">
            <mxPoint x="600" y="20" as="sourcePoint" />
            <mxPoint x="610" y="290" as="targetPoint" />
            <Array as="points">
              <mxPoint x="610" y="20" />
              <mxPoint x="610" y="200" />
            </Array>
          </mxGeometry>
        </mxCell>
        <mxCell id="pdg93lW9iFJ4b4SD4-UE-56" value="" style="endArrow=none;html=1;edgeStyle=orthogonalEdgeStyle;rounded=0;exitX=0.5;exitY=0;exitDx=0;exitDy=0;entryX=0.5;entryY=0;entryDx=0;entryDy=0;" parent="WIyWlLk6GJQsqaUBKTNV-1" source="pdg93lW9iFJ4b4SD4-UE-39" target="pdg93lW9iFJ4b4SD4-UE-43" edge="1">
          <mxGeometry relative="1" as="geometry">
            <mxPoint x="610" y="30" as="sourcePoint" />
            <mxPoint x="700" y="290" as="targetPoint" />
            <Array as="points">
              <mxPoint x="510" y="290" />
              <mxPoint x="700" y="290" />
            </Array>
          </mxGeometry>
        </mxCell>
        <mxCell id="pdg93lW9iFJ4b4SD4-UE-57" value="Point" style="swimlane;fontStyle=1;align=center;verticalAlign=top;childLayout=stackLayout;horizontal=1;startSize=26;horizontalStack=0;resizeParent=1;resizeParentMax=0;resizeLast=0;collapsible=1;marginBottom=0;whiteSpace=wrap;html=1;" parent="WIyWlLk6GJQsqaUBKTNV-1" vertex="1">
          <mxGeometry x="330" y="560" width="160" height="130" as="geometry" />
        </mxCell>
        <mxCell id="pdg93lW9iFJ4b4SD4-UE-58" value="&lt;div&gt;- x&lt;/div&gt;&lt;div&gt;- y&amp;nbsp;&lt;/div&gt;&lt;div&gt;- eaten&lt;/div&gt;" style="text;strokeColor=none;fillColor=none;align=left;verticalAlign=top;spacingLeft=4;spacingRight=4;overflow=hidden;rotatable=0;points=[[0,0.5],[1,0.5]];portConstraint=eastwest;whiteSpace=wrap;html=1;" parent="pdg93lW9iFJ4b4SD4-UE-57" vertex="1">
          <mxGeometry y="26" width="160" height="54" as="geometry" />
        </mxCell>
        <mxCell id="pdg93lW9iFJ4b4SD4-UE-59" value="" style="line;strokeWidth=1;fillColor=none;align=left;verticalAlign=middle;spacingTop=-1;spacingLeft=3;spacingRight=3;rotatable=0;labelPosition=right;points=[];portConstraint=eastwest;strokeColor=inherit;" parent="pdg93lW9iFJ4b4SD4-UE-57" vertex="1">
          <mxGeometry y="80" width="160" height="8" as="geometry" />
        </mxCell>
        <mxCell id="pdg93lW9iFJ4b4SD4-UE-60" value="&lt;div&gt;+ getter()&amp;nbsp;&lt;/div&gt;&lt;div&gt;+ render()&lt;/div&gt;" style="text;strokeColor=none;fillColor=none;align=left;verticalAlign=top;spacingLeft=4;spacingRight=4;overflow=hidden;rotatable=0;points=[[0,0.5],[1,0.5]];portConstraint=eastwest;whiteSpace=wrap;html=1;" parent="pdg93lW9iFJ4b4SD4-UE-57" vertex="1">
          <mxGeometry y="88" width="160" height="42" as="geometry" />
        </mxCell>
        <mxCell id="pdg93lW9iFJ4b4SD4-UE-62" value="" style="endArrow=none;html=1;edgeStyle=orthogonalEdgeStyle;rounded=0;entryX=0.5;entryY=0;entryDx=0;entryDy=0;exitX=0.5;exitY=0;exitDx=0;exitDy=0;" parent="WIyWlLk6GJQsqaUBKTNV-1" source="pdg93lW9iFJ4b4SD4-UE-0" target="pdg93lW9iFJ4b4SD4-UE-57" edge="1">
          <mxGeometry relative="1" as="geometry">
            <mxPoint x="320" y="160" as="sourcePoint" />
            <mxPoint x="410" y="480" as="targetPoint" />
            <Array as="points">
              <mxPoint x="360" y="150" />
              <mxPoint x="360" y="130" />
              <mxPoint x="420" y="130" />
              <mxPoint x="420" y="560" />
            </Array>
          </mxGeometry>
        </mxCell>
      </root>
    </mxGraphModel>
  </diagram>
</mxfile>
